<svg xmlns="http://www.w3.org/2000/svg" viewBox="0 0 920 660" role="img" aria-labelledby="t d">
<title id="t">Building simulation and linked research data</title><desc id="d">Abstract building sections connected to data nodes and plots.</desc>
<rect width="920" height="660" rx="36" fill="#eef2ec"/>
<path d="M86 526H846" stroke="#16231d" stroke-width="2"/>
<path d="M148 526V236l160-94 158 94v290M308 142v384M466 236l152-88 154 88v290M618 148v378" fill="none" stroke="#16231d" stroke-width="4" stroke-linejoin="round"/>
<path d="M182 272h92M182 330h92M182 388h92M182 446h92M342 272h90M342 330h90M342 388h90M342 446h90M502 272h82M502 330h82M502 388h82M502 446h82M654 272h82M654 330h82M654 388h82M654 446h82" stroke="#7e8d84" stroke-width="3"/>
<path d="M86 90h234M86 113h146" stroke="#16231d" stroke-width="9" stroke-linecap="round"/>
<circle cx="759" cy="92" r="38" fill="#d5ddcf" stroke="#16231d" stroke-width="3"/>
<path d="M745 96l12 12 24-32" fill="none" stroke="#16231d" stroke-width="5" stroke-linecap="round" stroke-linejoin="round"/>
<g fill="#16231d"><circle cx="117" cy="579" r="7"/><circle cx="199" cy="579" r="7"/><circle cx="281" cy="579" r="7"/><circle cx="363" cy="579" r="7"/><circle cx="445" cy="579" r="7"/></g>
<path d="M117 579l82-18 82 12 82-45 82 14 77-71 82 28 82-89" fill="none" stroke="#52675c" stroke-width="4"/>
<g fill="#eef2ec" stroke="#16231d" stroke-width="3"><circle cx="199" cy="561" r="9"/><circle cx="363" cy="528" r="9"/><circle cx="522" cy="471" r="9"/><circle cx="686" cy="410" r="9"/></g>
</svg>