<svg xmlns="http://www.w3.org/2000/svg" viewBox="0 0 1200 760"><rect width="1200" height="760" fill="#e9eee7"/><path d="M120 608h960" stroke="#17231d" stroke-width="7"/><path d="M192 608V282l184-105 184 105v326M376 177v431M560 608V354l156-88 156 88v254M716 266v342" fill="none" stroke="#17231d" stroke-width="9" stroke-linejoin="round"/><path d="M238 334h94M238 410h94M238 486h94M421 334h94M421 410h94M421 486h94M606 402h78M606 478h78M748 402h78M748 478h78" stroke="#809087" stroke-width="7"/><path d="M940 154c64 17 104 76 89 137-65-14-107-73-89-137z" fill="#52675c"/><path d="M940 154c-35 41-54 92-55 154" fill="none" stroke="#17231d" stroke-width="7" stroke-linecap="round"/></svg>