<svg xmlns="http://www.w3.org/2000/svg" viewBox="0 0 1200 760"><rect width="1200" height="760" fill="#e7ede5"/><rect x="95" y="100" width="585" height="560" rx="26" fill="#f8faf7" stroke="#17231d" stroke-width="6"/><path d="M95 205h585M240 100v560M388 100v560M536 100v560M95 320h585M95 435h585M95 550h585" stroke="#809087" stroke-width="4"/><path d="M755 168h347v425H755z" fill="#d4ddcf" stroke="#17231d" stroke-width="6"/><path d="M817 518V358l112-71 111 71v160M929 287v231M787 518h283" fill="none" stroke="#17231d" stroke-width="8" stroke-linejoin="round"/><g fill="#52675c"><rect x="270" y="238" width="86" height="49" rx="8"/><rect x="418" y="353" width="86" height="49" rx="8"/><rect x="122" y="468" width="86" height="49" rx="8"/></g><path d="M680 380h75" stroke="#17231d" stroke-width="12" stroke-linecap="round"/><path d="M724 344l36 36-36 36" fill="none" stroke="#17231d" stroke-width="10" stroke-linecap="round" stroke-linejoin="round"/></svg>