<svg xmlns="http://www.w3.org/2000/svg" viewBox="0 0 1200 760"><rect width="1200" height="760" fill="#e8eee6"/><g fill="none" stroke="#17231d" stroke-width="5"><rect x="118" y="116" width="282" height="178" rx="18"/><rect x="459" y="116" width="282" height="178" rx="18"/><rect x="800" y="116" width="282" height="178" rx="18"/><rect x="288" y="464" width="282" height="178" rx="18"/><rect x="630" y="464" width="282" height="178" rx="18"/><path d="M400 205h59M741 205h59M259 294v82h170v88M941 294v82H771v88M600 294v170"/></g><g fill="#52675c"><circle cx="429" cy="205" r="12"/><circle cx="771" cy="205" r="12"/><circle cx="600" cy="376" r="12"/></g><text x="145" y="180" font-family="Segoe UI, Arial" font-size="36" font-weight="700" fill="#17231d">PUBLICATIONS</text><text x="486" y="180" font-family="Segoe UI, Arial" font-size="36" font-weight="700" fill="#17231d">PROJECTS</text><text x="827" y="180" font-family="Segoe UI, Arial" font-size="36" font-weight="700" fill="#17231d">SOFTWARE</text><text x="325" y="534" font-family="Segoe UI, Arial" font-size="36" font-weight="700" fill="#17231d">THEMES</text><text x="667" y="534" font-family="Segoe UI, Arial" font-size="36" font-weight="700" fill="#17231d">CV OUTPUTS</text></svg>